<?xml version="1.0" standalone="no"?>
<!DOCTYPE svg PUBLIC "-//W3C//DTD SVG 20010904//EN"
 "http://www.w3.org/TR/2001/REC-SVG-20010904/DTD/svg10.dtd">
<svg version="1.0" xmlns="http://www.w3.org/2000/svg"
 width="700.000000pt" height="700.000000pt" viewBox="0 0 700.000000 700.000000"
 preserveAspectRatio="xMidYMid meet">
<metadata>
Created by potrace 1.14, written by Peter Selinger 2001-2017
</metadata>
<g transform="translate(0.000000,700.000000) scale(0.100000,-0.100000)"
fill="#000000" stroke="none">
<path d="M3236 6042 c-98 -163 -183 -306 -189 -317 -7 -10 -23 -37 -37 -60
-13 -22 -29 -48 -35 -58 -8 -14 -193 -323 -311 -518 l-31 -52 157 -246 c372
-587 446 -703 465 -735 11 -18 124 -196 250 -394 127 -199 235 -370 240 -381
6 -10 22 -36 37 -57 32 -48 199 -312 213 -336 12 -22 138 -220 221 -348 33
-52 67 -105 73 -118 12 -23 12 -23 -16 -8 -15 9 -97 61 -181 116 -85 55 -158
100 -163 100 -5 0 -9 4 -9 9 0 5 -8 11 -17 15 -10 3 -97 57 -193 120 -155 102
-325 212 -395 256 -14 8 -146 94 -295 190 -149 96 -351 226 -448 289 -97 62
-221 142 -274 177 -54 35 -102 64 -107 64 -5 0 -11 3 -13 8 -4 10 -213 142
-224 141 -5 0 -47 -65 -94 -145 -47 -80 -94 -160 -104 -177 -90 -147 -321
-531 -394 -652 -49 -82 -186 -311 -305 -509 -120 -197 -217 -362 -217 -367 0
-5 -4 -9 -10 -9 -5 0 -10 -4 -10 -9 0 -4 -16 -35 -36 -67 -521 -867 -744
-1239 -744 -1245 0 -4 -7 -12 -15 -19 -9 -7 -13 -16 -9 -19 7 -7 1562 -8 1574
-1 9 6 152 242 550 905 145 242 265 442 267 444 2 3 17 -5 33 -17 16 -12 32
-22 36 -22 3 0 20 -10 37 -22 17 -12 148 -98 292 -190 143 -92 267 -172 275
-178 24 -16 489 -315 565 -363 74 -47 146 -94 592 -382 l278 -179 1243 -1
c683 0 1242 2 1242 4 0 3 -6 12 -14 20 -7 9 -47 70 -88 136 -95 152 -684 1083
-952 1505 -26 41 -122 192 -212 335 -91 143 -182 287 -203 320 -21 33 -93 148
-161 255 -123 196 -145 230 -236 372 -27 43 -80 127 -119 188 -38 62 -97 154
-130 206 -72 113 -115 180 -275 434 -68 107 -137 218 -155 245 -17 28 -60 95
-95 150 -34 55 -77 123 -95 150 -18 28 -59 93 -92 145 -33 52 -147 232 -253
400 -162 256 -500 791 -504 797 -1 1 -81 -132 -180 -295z"/>
</g>
</svg>
